<?xml version="1.0" encoding="UTF-8"?>
<svg version="1.1" xmlns="http://www.w3.org/2000/svg" width="2319" height="723">
<path d="M0 0 C1.01653656 -0.00570007 2.03307312 -0.01140015 3.08041382 -0.01727295 C5.22677592 -0.02666837 7.37315208 -0.03323504 9.51953125 -0.03710938 C12.71642207 -0.04670389 15.91263753 -0.07773392 19.109375 -0.109375 C37.75307562 -0.20550714 56.16479314 1.50496941 74.3984375 5.515625 C75.38328125 5.72872314 76.368125 5.94182129 77.3828125 6.16137695 C133.18858937 18.58013996 182.58173144 49.8504603 213.68359375 98.2578125 C223.08988129 113.20489218 230.03009664 128.63742851 236.1484375 145.203125 C236.56416016 146.31204102 236.56416016 146.31204102 236.98828125 147.44335938 C240.2384564 156.27153783 242.08476663 165.29522658 243.8359375 174.515625 C244.03872314 175.58216309 244.24150879 176.64870117 244.45043945 177.74755859 C245.66861479 184.53170167 246.5205859 191.29817749 247.21801758 198.15307617 C247.30838539 199.02680626 247.3987532 199.90053635 247.49185944 200.8007431 C247.71233724 202.93470381 247.93061466 205.06889166 248.1484375 207.203125 C237.60462438 207.22624843 227.06081725 207.24404009 216.51698399 207.25493717 C211.62158376 207.260166 206.72620082 207.26726364 201.83081055 207.27856445 C197.11055772 207.28939334 192.39032158 207.29540184 187.6700573 207.29800224 C185.86504796 207.29985649 184.06003958 207.30347709 182.25503731 207.30885506 C179.73584106 207.31606552 177.2167146 207.31711594 174.69750977 207.31665039 C173.56678795 207.3220433 173.56678795 207.3220433 172.41322327 207.32754517 C167.26248966 207.31717716 167.26248966 207.31717716 166.1484375 206.203125 C165.85198234 204.7240409 165.60794885 203.23437806 165.38671875 201.7421875 C159.23007594 162.2302674 142.02024883 124.60282001 109.1484375 100.203125 C92.7043168 88.24031202 74.94592991 79.56848283 55.2109375 74.515625 C54.03192871 74.21168823 54.03192871 74.21168823 52.82910156 73.90161133 C39.91235779 70.74614508 27.19329238 69.82377868 13.9609375 69.890625 C13.19086365 69.89278015 12.42078979 69.8949353 11.62738037 69.89715576 C-0.09751835 69.94973923 -11.41437107 70.41023419 -22.8515625 73.203125 C-23.67156738 73.39648438 -24.49157227 73.58984375 -25.33642578 73.7890625 C-63.24760358 82.97106333 -95.47106395 105.02580124 -116.15429688 138.29882812 C-128.31487816 158.4937546 -135.76424187 180.3130408 -138.4921875 203.74609375 C-138.8515625 206.203125 -138.8515625 206.203125 -139.8515625 207.203125 C-142.37697252 207.29816751 -144.87493376 207.32869658 -147.40063477 207.31665039 C-148.58591263 207.31686943 -148.58591263 207.31686943 -149.7951355 207.3170929 C-152.41944072 207.31639357 -155.04367586 207.30860027 -157.66796875 207.30078125 C-159.48257915 207.29891714 -161.29719006 207.2974932 -163.11180115 207.29649353 C-167.8974648 207.29266779 -172.6830983 207.28283704 -177.46875 207.27178955 C-182.34830314 207.26157663 -187.22786114 207.25699617 -192.10742188 207.25195312 C-201.68881536 207.24121482 -211.27018643 207.22413773 -220.8515625 207.203125 C-220.40436226 203.11115634 -219.94713307 199.02036467 -219.48828125 194.9296875 C-219.36352417 193.78701416 -219.23876709 192.64434082 -219.11022949 191.46704102 C-213.01744823 137.54066625 -187.08637379 85.3548348 -144.64892578 50.82275391 C-103.92551758 18.6726948 -51.99017241 0.23383304 0 0 Z " fill="#FFFFFF" transform="translate(2070.8515625,72.796875)"/>
<path d="M0 0 C10.54381312 -0.02312343 21.08762025 -0.04091509 31.63145351 -0.05181217 C36.52685374 -0.057041 41.42223668 -0.06413864 46.31762695 -0.07543945 C51.03787978 -0.08626834 55.75811592 -0.09227684 60.4783802 -0.09487724 C62.28338954 -0.09673149 64.08839792 -0.10035209 65.89340019 -0.10573006 C68.41259644 -0.11294052 70.9317229 -0.11399094 73.45092773 -0.11352539 C74.20474228 -0.11712067 74.95855682 -0.12071594 75.73521423 -0.12442017 C80.88594784 -0.11405216 80.88594784 -0.11405216 82 1 C82.29598436 2.39406945 82.54023196 3.79920314 82.76171875 5.20703125 C89.48551909 46.07362103 107.1893124 83.50708508 141.44140625 108.52734375 C176.56342828 133.31646493 220.51271198 141.76763235 262.70703125 134.9765625 C300.96405024 128.21915158 335.93990233 108.59650931 358.77246094 76.76660156 C374.84995161 53.62882859 383.52066396 27.83468833 387 0 C414.06 0 441.12 0 469 0 C463.00519584 49.95670135 449.418869 94.60783729 416 133 C415.50048828 133.57395508 415.00097656 134.14791016 414.48632812 134.73925781 C409.03490289 140.94722214 403.4103972 146.77871527 397 152 C395.94650737 152.8891959 394.89313272 153.7785316 393.83984375 154.66796875 C379.55948379 166.56598114 363.90784185 176.29642708 347 184 C346.28440918 184.3295166 345.56881836 184.6590332 344.83154297 184.99853516 C280.62345272 214.24251614 201.8822144 214.62273934 136.14550781 190.21191406 C109.06837518 179.77952611 85.65314331 164.48245291 64.25 144.9375 C63.73131348 144.46731445 63.21262695 143.99712891 62.67822266 143.51269531 C49.7154835 131.51732475 38.60248198 116.35334427 30 101 C29.58540527 100.27425781 29.17081055 99.54851562 28.74365234 98.80078125 C16.48769456 77.17313931 8.71404672 54.07662051 3.875 29.75 C3.71604248 28.9652832 3.55708496 28.18056641 3.39331055 27.37207031 C2.24831257 21.32088562 1.56796341 15.25180502 0.94189453 9.12988281 C0.85069839 8.25038971 0.75950226 7.37089661 0.6655426 6.4647522 C0.4423101 4.30997783 0.22096454 2.15500812 0 0 Z " fill="#FFFFFF" transform="translate(1850,323)"/>
<path d="M0 0 C26.73 0 53.46 0 81 0 C82.65 8.25 84.3 16.5 86 25 C97.00973006 64.69297415 119.86597527 97.49354751 155.83789062 118.05029297 C170.976455 126.48746667 187.90515768 132.21620687 205 135 C206.2271875 135.20367187 207.454375 135.40734375 208.71875 135.6171875 C252.5477481 142.15446737 298.48187719 132.5405888 337.25439453 111.80688477 C339 111 339 111 341 111 C341 74.37 341 37.74 341 0 C365.09 0 389.18 0 414 0 C414 55.44 414 110.88 414 168 C395.42351922 177.28824039 395.42351922 177.28824039 386.375 180.5625 C385.35921875 180.93544189 384.3434375 181.30838379 383.296875 181.69262695 C324.81623219 202.92904524 257.137653 214.2859518 195 205 C194.10716309 204.87109375 193.21432617 204.7421875 192.29443359 204.609375 C141.81633953 197.12472196 98.1607238 176.96850844 61 142 C60.34128906 141.38382813 59.68257812 140.76765625 59.00390625 140.1328125 C24.71210275 107.02894676 3.66793758 55.97149917 0 9 C0 6.03 0 3.06 0 0 Z " fill="#FFFFFF" transform="translate(1347,323)"/>
<path d="M0 0 C20.191875 -0.04125 40.38375 -0.0825 61.1875 -0.125 C70.65860474 -0.15231201 70.65860474 -0.15231201 80.32104492 -0.18017578 C88.18811035 -0.18920898 88.18811035 -0.18920898 91.90132141 -0.19088745 C94.42838755 -0.19390634 96.95545131 -0.20082751 99.48249817 -0.21115112 C172.86745902 -0.49527099 251.01077696 11.59675293 307 63 C307.5151416 63.46986328 308.0302832 63.93972656 308.56103516 64.42382812 C343.17830465 96.38506956 361.26381269 143.7158885 365 190 C365 191.98 365 193.96 365 196 C338.27 196 311.54 196 284 196 C282.02 185.605 282.02 185.605 280 175 C271.8860533 147.52322594 257.43220795 122.22478531 234 105 C233.03964844 104.27554688 232.07929687 103.55109375 231.08984375 102.8046875 C209.40481814 87.06865122 184.28365727 77.6128292 158 73 C157.10071777 72.84160645 156.20143555 72.68321289 155.27490234 72.52001953 C129.5491933 68.29680276 102.75361858 69.47691886 77 69 C77 110.91 77 152.82 77 196 C51.59 196 26.18 196 0 196 C0 131.32 0 66.64 0 0 Z " fill="#FFFFFF" transform="translate(720,84)"/>
<path d="M0 0 C25.41 0 50.82 0 77 0 C77 41.58 77 83.16 77 126 C150.26008626 125.51086105 150.26008626 125.51086105 218 102 C219.07765625 101.42378906 220.1553125 100.84757812 221.265625 100.25390625 C238.19552828 90.85563943 253.02323854 76.60060218 263 60 C263.37608398 59.37673828 263.75216797 58.75347656 264.13964844 58.11132812 C274.34158411 40.8544076 279.49975752 22.39961002 282.63037109 2.70800781 C283 1 283 1 284 0 C286.52541002 -0.09504251 289.02337126 -0.12557158 291.54907227 -0.11352539 C292.33925751 -0.11367142 293.12944275 -0.11381744 293.943573 -0.1139679 C296.56787822 -0.11326857 299.19211336 -0.10547527 301.81640625 -0.09765625 C303.63101665 -0.09579214 305.44562756 -0.0943682 307.26023865 -0.09336853 C312.0459023 -0.08954279 316.8315358 -0.07971204 321.6171875 -0.06866455 C326.49674064 -0.05845163 331.37629864 -0.05387117 336.25585938 -0.04882812 C345.83725286 -0.03808982 355.41862393 -0.02101273 365 0 C364.85445141 2.21088544 364.70530888 4.42153444 364.5546875 6.63208008 C364.47202637 7.86315994 364.38936523 9.09423981 364.30419922 10.36262512 C362.23661292 35.08519512 354.09707281 60.39981589 342 82 C341.38769531 83.15886719 340.77539062 84.31773437 340.14453125 85.51171875 C332.37309834 99.82076945 322.28034051 112.320214 311 124 C310.08039807 124.9827632 309.16113063 125.9658395 308.2421875 126.94921875 C296.50634634 139.30156552 282.56779098 149.24965652 268 158 C267.39929688 158.36544922 266.79859375 158.73089844 266.1796875 159.10742188 C225.50241143 183.65845566 175.77979615 195.24470886 128.51074219 195.11352539 C127.07752103 195.11321827 125.64429973 195.11335388 124.21107864 195.11389065 C120.40990142 195.11411428 116.60875637 195.10836359 112.80758667 195.10128021 C109.22670401 195.09553999 105.64582874 195.09531465 102.06494141 195.09460449 C91.62662343 195.0893794 81.18831129 195.07541814 70.75 195.0625 C47.4025 195.041875 24.055 195.02125 0 195 C0 130.65 0 66.3 0 0 Z " fill="#FFFFFF" transform="translate(720,323)"/>
<path d="M0 0 C1.8311586 0.00273422 1.8311586 0.00273422 3.6993103 0.00552368 C21.36210858 0.04999174 38.67081939 0.38873221 56.125 3.3125 C57.19733887 3.48410645 58.26967773 3.65571289 59.37451172 3.83251953 C97.41563862 10.05500469 132.22229547 23.0724563 163.125 46.3125 C161.77327153 50.39629341 160.05563758 52.68933519 156.9375 55.625 C153.38959667 58.9864986 150.16945774 62.5143449 146.97436523 66.20483398 C143.98448471 69.61231103 140.86505866 72.8948071 137.75 76.1875 C132.88222501 81.35578437 128.05978439 86.55430946 123.33203125 91.8515625 C118.97345128 96.71157202 114.54291591 101.50646812 110.125 106.3125 C105.79622562 105.80817677 103.07853705 103.00442673 99.875 100.3125 C82.48819105 86.24522035 61.85093514 77.99254064 40.125 73.3125 C39.37992188 73.14733887 38.63484375 72.98217773 37.8671875 72.81201172 C25.18557513 70.14147183 12.4050684 70.00321714 -0.5 69.9375 C-1.72426697 69.92558121 -1.72426697 69.92558121 -2.9732666 69.91342163 C-18.80841403 69.79509751 -34.34767407 71.49428073 -49.5625 76.0625 C-50.43277832 76.31926514 -51.30305664 76.57603027 -52.19970703 76.84057617 C-88.67043694 87.95562447 -118.41087931 113.13176245 -136.625 146.5 C-146.60362897 165.7245536 -151.33744717 186.087183 -154.875 207.3125 C-181.605 207.3125 -208.335 207.3125 -235.875 207.3125 C-235.875 157.5921493 -213.3550415 105.03880807 -178.875 69.3125 C-178.30265625 68.714375 -177.7303125 68.11625 -177.140625 67.5 C-168.58476509 58.5963409 -159.98076723 50.43164121 -149.875 43.3125 C-149.05974854 42.72275391 -149.05974854 42.72275391 -148.22802734 42.12109375 C-130.74453824 29.51636442 -111.24390862 20.20592515 -90.875 13.3125 C-90.070625 13.03712402 -89.26625 12.76174805 -88.4375 12.47802734 C-78.36002192 9.08546725 -68.18235482 6.60571542 -57.75 4.5625 C-56.23273315 4.26436401 -56.23273315 4.26436401 -54.68481445 3.96020508 C-36.42981114 0.5707166 -18.53190205 -0.05717837 0 0 Z " fill="#FFFFFF" transform="translate(1582.875,72.6875)"/>
<path d="M0 0 C19.305 -0.53625 38.61 -1.0725 58.5 -1.625 C67.60045898 -1.98005615 67.60045898 -1.98005615 76.88476562 -2.34228516 C116.72669329 -3.25644807 116.72669329 -3.25644807 124.65200806 3.8552227 C129.55945853 9.30636024 132.02258143 15.89764209 134.03930664 22.87286377 C135.30815364 27.00306554 137.29408681 30.21761897 139.71875 33.75 C140.97981208 35.83294272 142.24024764 37.91626491 143.5 40 C149.68621172 50.21497732 155.92366723 60.39727805 162.19140625 70.5625 C166.48419468 77.52767648 170.75221007 84.50729849 175 91.5 C179.97178423 99.68419081 184.97587946 107.84783507 190 116 C195.02412122 124.15216605 200.02806516 132.31589995 205 140.5 C210.0601179 148.8268406 215.14491589 157.13814657 220.25 165.4375 C220.92160156 166.52998047 221.59320313 167.62246094 222.28515625 168.74804688 C225.24544602 173.55632819 228.21546417 178.35717109 231.234375 183.12890625 C231.70842773 183.87922119 232.18248047 184.62953613 232.67089844 185.40258789 C233.52935595 186.75729188 234.39171791 188.10953313 235.25878906 189.45874023 C238 193.78100394 238 193.78100394 238 196 C226.77794987 196.23194204 215.55647184 196.40950237 204.33251095 196.51812172 C199.12030685 196.57026163 193.90974509 196.64094632 188.69848633 196.75439453 C183.66681929 196.86324453 178.636729 196.92288026 173.6039753 196.94877243 C171.68644953 196.96721679 169.76900793 197.00323846 167.85215569 197.05730057 C152.84696893 197.46357662 152.84696893 197.46357662 148.33848572 193.89096069 C146.51063777 191.32778737 145.22276862 188.89362332 144 186 C143.39631592 185.04270996 142.79263184 184.08541992 142.1706543 183.09912109 C141.72633057 182.33164551 141.28200684 181.56416992 140.82421875 180.7734375 C140.31205811 179.8959082 139.79989746 179.01837891 139.2722168 178.11425781 C138.74926025 177.21030273 138.22630371 176.30634766 137.6875 175.375 C133.93015547 168.95037495 130.15792217 162.545558 126.1875 156.25 C121.83092845 149.33935786 117.53073463 142.39540374 113.25 135.4375 C112.56478271 134.3239917 111.87956543 133.2104834 111.17358398 132.06323242 C106.1578218 123.90341929 101.16910545 115.72737079 96.21972656 107.52709961 C90.60774115 98.26555334 84.78681337 89.1624545 79 80 C78.67 118.28 78.34 156.56 78 196 C52.26 196 26.52 196 0 196 C0 131.32 0 66.64 0 0 Z " fill="#FFFFFF" transform="translate(193,84)"/>
<path d="M0 0 C11.13451032 -0.44181803 22.26691332 -0.77857437 33.40842819 -0.98443127 C38.58355618 -1.08328686 43.75265859 -1.21708196 48.92431641 -1.43334961 C82.18004165 -2.78753162 82.18004165 -2.78753162 89.95275879 1.70767212 C94.32708204 5.94071009 96.39460409 10.83668997 98.1829834 16.57546997 C99.38958 20.15609451 101.24814096 22.91304024 103.328125 26.06640625 C104.63696943 28.23083262 105.94425193 30.39620425 107.25 32.5625 C108.7122743 34.98123675 110.17623827 37.39894796 111.640625 39.81640625 C112.00514771 40.41836823 112.36967041 41.0203302 112.74523926 41.64053345 C117.10864824 48.83957538 121.53257966 56.00123692 125.953125 63.1652832 C129.5360243 68.97816409 133.10100007 74.80132448 136.640625 80.640625 C137.2201593 81.59660583 137.2201593 81.59660583 137.81140137 82.57189941 C139.68256668 85.65982376 141.55155339 88.74904628 143.41796875 91.83984375 C144.08957031 92.94972656 144.76117187 94.05960937 145.453125 95.203125 C146.33726074 96.66733887 146.33726074 96.66733887 147.23925781 98.16113281 C149.09289587 101.1497772 151.04922348 104.07383523 153 107 C153.33 71.69 153.66 36.38 154 0 C179.74 0 205.48 0 232 0 C232 64.35 232 128.7 232 195 C213.458125 195.45375 194.91625 195.9075 175.8125 196.375 C167.06262573 196.67543213 167.06262573 196.67543213 158.13598633 196.98193359 C150.95837402 197.08129883 150.95837402 197.08129883 147.58769226 197.09976196 C145.2556548 197.13333918 142.92397781 197.21031489 140.59440613 197.32266235 C124.57371097 198.05600049 124.57371097 198.05600049 118 195 C112.27921986 189.65876158 109.12539574 182.65546864 106.11620235 175.5468998 C104.70271894 172.32167758 102.98463508 169.52102272 101.046875 166.5859375 C100.49974854 165.71855957 99.95262207 164.85118164 99.38891602 163.95751953 C98.84807373 163.10528809 98.30723145 162.25305664 97.75 161.375 C92.27178216 152.67400493 86.88539492 143.92148777 81.5625 135.125 C75.35733497 124.87227528 69.1058399 114.64974373 62.81542969 104.44897461 C58.45642987 97.37666472 54.12488965 90.28831599 49.8125 83.1875 C44.88170832 75.06942016 39.90363489 66.98234061 34.89379883 58.9128418 C30.30329784 51.51035488 25.77530324 44.070768 21.25463867 36.62548828 C16.60193073 28.97025541 11.89988772 21.346467 7.17382812 13.73632812 C6.19467499 12.15942889 5.21684739 10.58170534 4.24072266 9.00292969 C3.21305964 7.34394753 2.17609392 5.69073206 1.13671875 4.0390625 C0 2 0 2 0 0 Z " fill="#FFFFFF" transform="translate(371,323)"/>
<path d="M0 0 C10.49019819 6.83678905 15.68845019 16.61473799 18.4765625 28.6640625 C18.94634342 31.41623035 19.12238949 34.0207706 19.16796875 36.8125 C19.19375 37.74191406 19.21953125 38.67132813 19.24609375 39.62890625 C18.29105051 50.16849063 14.42317501 58.97493043 9.66796875 68.3125 C1.94976393 83.91519628 -3.68158381 98.93523426 -7.7578125 115.8828125 C-7.92896702 116.59079231 -8.10012154 117.29877213 -8.27646255 118.02820587 C-12.32461343 134.82212822 -15.85870049 151.71961015 -19.3493042 168.63659668 C-20.49127221 174.17092146 -21.64256406 179.70328391 -22.79541016 185.23535156 C-23.19529554 187.1547213 -23.59516728 189.07409387 -23.99502563 190.99346924 C-24.19464527 191.9516581 -24.39426491 192.90984695 -24.59993362 193.89707184 C-25.41214471 197.79750395 -26.22312149 201.69819223 -27.03406334 205.5988884 C-47.06685437 301.95389622 -47.06685437 301.95389622 -54.76953125 334.0625 C-54.99638611 335.01306274 -55.22324097 335.96362549 -55.45697021 336.94299316 C-57.96300963 347.38679478 -60.72896078 357.74038472 -63.7109375 368.05859375 C-63.99700363 369.05260696 -64.28306976 370.04662018 -64.57780457 371.070755 C-70.09318125 389.85200883 -70.09318125 389.85200883 -76.08203125 397.25 C-77.73203125 396.92 -79.38203125 396.59 -81.08203125 396.25 C-83.70205281 387.90842361 -84.89830266 379.75173726 -85.70703125 371.0625 C-85.82820313 369.86302734 -85.949375 368.66355469 -86.07421875 367.42773438 C-86.63467624 361.72264263 -87.10637622 356.03360315 -87.3862915 350.30740356 C-87.79368578 342.27642143 -88.93616606 334.57607861 -90.55065918 326.68450928 C-91.25915459 323.20279386 -91.92412196 319.71276215 -92.58984375 316.22265625 C-92.78767456 315.1874585 -92.78767456 315.1874585 -92.98950195 314.13134766 C-100.55470206 274.17867999 -100.44041429 234.4906777 -94.16757202 194.45977783 C-89.28771574 163.09818871 -86.30443208 131.63140423 -84.67651367 99.93994141 C-83.63455816 79.69368991 -83.63455816 79.69368991 -78.51171875 74.34765625 C-74.93157021 71.2567563 -71.05272106 68.64307703 -67.15454102 65.97216797 C-60.32097679 61.19779426 -55.20912522 55.44354551 -53.6796875 47.0390625 C-53.08174164 42.67204216 -52.95929608 39.02853133 -54.08203125 34.75 C-55.74375627 28.25208217 -55.42577939 22.03730208 -52.08203125 16.125 C-41.37487851 0.98202685 -17.5386749 -9.47680745 0 0 Z " fill="#FFFFFF" transform="translate(1260.08203125,159.75)"/>
<path d="M0 0 C25.74 0 51.48 0 78 0 C78 64.68 78 129.36 78 196 C52.26 196 26.52 196 0 196 C0 131.32 0 66.64 0 0 Z " fill="#FFFFFF" transform="translate(525,84)"/>
<path d="M0 0 C25.74 0 51.48 0 78 0 C78 64.35 78 128.7 78 195 C52.26 195 26.52 195 0 195 C0 130.65 0 66.3 0 0 Z " fill="#FFFFFF" transform="translate(193,323)"/>
<path d="M0 0 C25.41 0 50.82 0 77 0 C77 64.68 77 129.36 77 196 C51.59 196 26.18 196 0 196 C0 131.32 0 66.64 0 0 Z " fill="#FFFFFF" transform="translate(0,84)"/>
<path d="M0 0 C25.41 0 50.82 0 77 0 C77 64.35 77 128.7 77 195 C51.59 195 26.18 195 0 195 C0 130.65 0 66.3 0 0 Z " fill="#FFFFFF" transform="translate(0,323)"/>
<path d="M0 0 C2.66152457 3.37808888 2.77638924 6.33892966 2.90625 10.5 C2.96232422 12.08941406 2.96232422 12.08941406 3.01953125 13.7109375 C3.08984375 15.9453125 3.16015625 18.1796875 3.23046875 20.4140625 C3.28654297 22.00347656 3.28654297 22.00347656 3.34375 23.625 C3.37404297 24.59566406 3.40433594 25.56632812 3.43554688 26.56640625 C3.53295392 29.19223247 3.53295392 29.19223247 4.625 32.0625 C4.99378104 37.68641086 4.7928247 41.19762635 1.625 46.0625 C-3.20741997 50.58315094 -8.65087847 50.35377159 -14.9765625 50.26953125 C-40.67596962 48.70393518 -60.59014219 33.02368037 -78.875 16.3125 C-79.47489746 15.76956299 -80.07479492 15.22662598 -80.69287109 14.66723633 C-83.8856823 11.70599265 -86.34387402 8.97967153 -88.375 5.0625 C-74.67290405 2.5846097 -60.9470158 0.5383217 -47.125 -1.125 C-46.08172043 -1.25146912 -46.08172043 -1.25146912 -45.0173645 -1.38049316 C-7.27218807 -5.93257448 -7.27218807 -5.93257448 0 0 Z " fill="#FFFFFF" transform="translate(1317.375,55.9375)"/>
<path d="M0 0 C3 2.125 3 2.125 5 5 C5.50059055 8.79614504 5.31202279 10.5054996 3.25 13.7734375 C2.5075 14.63195312 1.765 15.49046875 1 16.375 C-0.11375 17.68597656 -0.11375 17.68597656 -1.25 19.0234375 C-1.8275 19.67570313 -2.405 20.32796875 -3 21 C-8.56781023 18.6448525 -11.83506329 13.78290437 -14.125 8.3125 C-13.94052342 4.89968335 -12.32851577 3.39504479 -10 1 C-6.77299243 -0.61350378 -3.48900338 -0.58705984 0 0 Z " fill="#FFFFFF" transform="translate(1204,592)"/>
<path d="M0 0 C6.14808616 0.89743306 10.00156983 1.87701134 14 7 C15.30765478 10.92296433 15.1971417 13.86002433 15 18 C14.34 18.66 13.68 19.32 13 20 C11.20151124 17.6090325 9.41115916 15.21265138 7.625 12.8125 C6.86316406 11.80219727 6.86316406 11.80219727 6.0859375 10.77148438 C3.51108387 7.29881995 1.34237043 4.16458295 0 0 Z " fill="#FFFFFF" transform="translate(1155,572)"/>
</svg>
