<?xml version="1.0" standalone="no"?>
<!DOCTYPE svg PUBLIC "-//W3C//DTD SVG 20010904//EN"
 "http://www.w3.org/TR/2001/REC-SVG-20010904/DTD/svg10.dtd">
<svg version="1.0" xmlns="http://www.w3.org/2000/svg"
 width="2319.000000pt" height="625.000000pt" viewBox="0 0 2319.000000 625.000000"
 preserveAspectRatio="xMidYMid meet">

<g transform="translate(0.000000,625.000000) scale(0.100000,-0.100000)"
fill="#090e34" stroke="none">
<path d="M12820 5989 c-163 -20 -515 -71 -520 -76 -8 -8 176 -180 262 -244
148 -110 284 -170 426 -190 176 -25 248 41 216 195 -7 36 -13 107 -12 158 3
106 -11 139 -64 157 -36 13 -200 12 -308 0z"/>
<path d="M15515 5789 c-133 -13 -344 -54 -481 -93 -788 -227 -1330 -801 -1509
-1596 -21 -93 -55 -306 -55 -345 0 -13 56 -15 405 -15 l405 0 0 24 c0 14 9 73
21 132 89 463 371 847 773 1053 317 162 739 210 1150 131 238 -46 470 -154
648 -302 l46 -39 265 288 c146 159 266 293 268 298 2 6 -48 45 -111 87 -315
213 -703 335 -1195 377 -140 12 -500 12 -630 0z"/>
<path d="M20605 5794 c-621 -65 -1076 -257 -1442 -608 -277 -266 -453 -559
-567 -946 -37 -127 -86 -396 -86 -476 l0 -24 400 0 399 0 6 38 c48 291 121
489 256 693 86 129 264 306 394 392 175 115 364 189 584 229 162 29 428 29
592 0 327 -59 600 -201 817 -427 230 -239 355 -505 417 -887 l6 -38 399 0 400
0 0 28 c0 107 -60 396 -120 575 -111 333 -280 600 -533 843 -331 318 -762 515
-1287 589 -110 16 -542 28 -635 19z"/>
<path d="M7 5683 c-4 -3 -7 -442 -7 -975 l0 -968 385 0 385 0 -2 973 -3 972
-376 3 c-206 1 -378 -1 -382 -5z"/>
<path d="M1937 5683 c-4 -3 -7 -442 -7 -975 l0 -968 390 0 390 0 2 590 3 590
360 -590 360 -589 433 -1 433 0 -15 28 c-8 15 -275 452 -594 972 l-579 945
-585 3 c-321 1 -588 -1 -591 -5z"/>
<path d="M5257 5683 c-4 -3 -7 -442 -7 -975 l0 -968 390 0 390 0 0 975 0 975
-383 0 c-211 0 -387 -3 -390 -7z"/>
<path d="M7210 4715 l0 -975 380 0 380 0 0 630 0 630 278 0 c477 0 726 -45
1021 -186 370 -176 618 -460 726 -829 14 -50 31 -125 38 -167 l11 -78 401 0
401 0 -3 38 c-49 519 -233 934 -555 1248 -307 300 -707 490 -1248 593 -297 56
-561 71 -1277 71 l-553 0 0 -975z"/>
<path d="M12351 4944 c-125 -33 -244 -123 -277 -209 -13 -36 -15 -57 -9 -103
30 -207 -2 -278 -183 -405 -45 -31 -88 -69 -96 -85 -8 -16 -16 -78 -20 -157
-22 -412 -51 -700 -104 -1030 -37 -227 -37 -233 -37 -515 1 -312 15 -459 74
-756 16 -82 32 -201 36 -264 15 -259 49 -460 79 -460 33 0 74 83 130 261 77
249 157 599 356 1554 233 1122 253 1196 375 1451 37 77 76 164 86 194 23 64
27 192 9 261 -32 118 -125 232 -217 263 -57 19 -130 20 -202 0z"/>
<path d="M5 3288 c-3 -7 -4 -445 -3 -973 l3 -960 380 0 380 0 0 970 0 970
-378 3 c-297 2 -379 0 -382 -10z"/>
<path d="M1935 3288 c-3 -7 -4 -445 -3 -973 l3 -960 388 -3 387 -2 0 975 0
975 -385 0 c-299 0 -387 -3 -390 -12z"/>
<path d="M3722 3278 c8 -13 277 -452 598 -975 l583 -953 564 0 563 0 0 975 0
975 -387 -2 -388 -3 -5 -547 -5 -547 -294 482 c-162 265 -314 512 -338 550
l-43 67 -431 0 -431 0 14 -22z"/>
<path d="M7210 2325 l0 -975 659 0 c815 0 983 12 1306 95 862 222 1432 754
1615 1508 29 119 61 324 53 340 -2 4 -184 7 -403 7 l-399 0 -6 -37 c-34 -203
-73 -332 -148 -477 -154 -302 -414 -513 -778 -634 -245 -81 -457 -110 -856
-119 l-283 -6 0 637 0 636 -380 0 -380 0 0 -975z"/>
<path d="M13475 3238 c111 -1059 808 -1793 1868 -1968 205 -34 435 -44 681
-31 556 29 1008 131 1455 326 l131 58 0 838 0 839 -362 -2 -363 -3 -3 -553 -2
-553 -133 -64 c-222 -108 -450 -171 -712 -196 -166 -16 -421 -7 -559 21 -633
125 -1073 587 -1186 1245 l-17 100 -402 3 -403 2 7 -62z"/>
<path d="M18510 3268 c0 -108 58 -391 115 -564 174 -529 530 -947 1022 -1200
591 -303 1407 -356 2075 -133 653 217 1130 690 1342 1329 54 165 116 471 116
576 l0 24 -400 0 -399 0 -5 -32 c-38 -233 -86 -391 -167 -549 -147 -287 -362
-499 -647 -639 -236 -117 -489 -168 -781 -157 -642 22 -1139 366 -1369 947
-32 82 -74 243 -92 358 l-12 72 -399 0 -399 0 0 -32z"/>
<path d="M11577 771 c81 -125 99 -151 105 -151 14 0 18 58 6 95 -14 44 -66 85
-105 85 l-25 0 19 -29z"/>
<path d="M11941 584 c-39 -32 -39 -60 -3 -110 53 -72 60 -74 99 -29 44 51 55
78 43 110 -10 26 -57 55 -89 55 -11 0 -33 -12 -50 -26z"/>
</g>
</svg>
